<svg width="465" height="345" viewBox="0 0 465 345" fill="none" xmlns="http://www.w3.org/2000/svg">
<path fill-rule="evenodd" clip-rule="evenodd" d="M372.544 334.234H333.239L330.198 336.818C329.574 336.083 328.2 335.114 325.478 334.246C325.466 334.242 325.453 334.238 325.441 334.234H267.832C263.553 334.624 259.206 335.04 254.851 335.457L254.849 335.458C238.615 337.012 222.262 338.578 208.899 338.845C187.359 339.276 152.488 337.532 120.253 334.469C119.436 334.392 118.62 334.313 117.806 334.234H100.582L89.2682 330.971C84.4706 330.327 79.884 329.653 75.582 328.953C62.801 326.872 51.9661 324.474 45.6657 321.722C41.5141 319.909 37.9081 317.726 34.7642 315.253L33.6962 314.945L33.4282 314.161C18.4753 301.475 14.613 281.924 11.6112 265.273C7.76157 243.919 5.8857 204.979 5.90147 178.594C5.91752 151.726 13.1959 105.94 17.0269 88.1038C20.7948 70.5613 26.1982 47.8336 44.5261 32.6613C49.6649 28.4073 58.2321 25.1569 67.245 22.5846C76.5075 19.9411 87.1503 17.7752 97.1472 16.0641C107.165 14.3495 116.64 13.0738 123.604 12.2271C127.088 11.8035 129.951 11.4864 131.946 11.2749C132.944 11.1691 133.725 11.0897 134.259 11.0365C134.526 11.0099 134.731 10.9898 134.871 10.9763L135.031 10.961L135.073 10.957L135.085 10.9559L135.088 10.9556C135.089 10.9555 135.09 10.9554 135.26 12.7541H135.26L135.09 10.9554L135.13 10.9516L135.171 10.9484L135.315 12.7541C135.171 10.9484 135.171 10.9484 135.172 10.9483L135.174 10.9482L135.183 10.9475L135.217 10.9448L135.351 10.9343L135.872 10.8936C136.331 10.858 137.006 10.8058 137.875 10.7395C139.615 10.6068 142.133 10.4174 145.254 10.1902C151.494 9.73567 160.145 9.1294 169.787 8.52233C189.026 7.31109 212.372 6.08615 228.371 6.07485C239.271 6.06715 249.052 6.05036 258.494 6.03415C276.421 6.00338 293.122 5.97471 313.925 6.01435C330.179 6.04533 351.344 8.06147 371.219 12.261C390.878 16.4148 410.183 22.8858 421.983 32.3463C433.113 41.2689 441.313 50.3007 447.008 61.0492C452.7 71.7911 455.694 83.8803 456.951 98.6352C459.41 127.482 459.41 148.782 456.951 177.218C456.338 184.298 455.885 190.162 455.457 195.708C454.192 212.094 453.142 225.707 448.82 259.696L448.81 259.774L448.809 259.78C447.377 271.04 446.219 280.145 445.009 287.457C443.802 294.747 442.489 300.619 440.636 305.286C438.735 310.077 436.177 313.827 432.402 316.61C428.738 319.311 424.376 320.759 419.529 321.798C415.846 322.588 412.093 323.04 408.485 323.375L377.45 334.234H376.156C375.899 334.676 375.654 335.138 375.421 335.622L372.544 334.234Z" fill="white"/>
<path d="M372.544 334.234L374.933 329.28L373.801 328.734H372.544V334.234ZM333.239 334.234V328.734H331.218L329.677 330.043L333.239 334.234ZM330.198 336.818L326.007 340.38L329.569 344.57L333.76 341.009L330.198 336.818ZM325.478 334.246L323.804 339.485L323.806 339.486L325.478 334.246ZM325.441 334.234L327.099 328.99L326.29 328.734H325.441V334.234ZM267.832 334.234V328.734H267.582L267.332 328.757L267.832 334.234ZM254.851 335.457L255.307 340.938L255.341 340.936L255.375 340.932L254.851 335.457ZM254.849 335.458L254.392 329.977L254.358 329.979L254.324 329.983L254.849 335.458ZM208.899 338.845L208.789 333.346L208.789 333.346L208.899 338.845ZM120.253 334.469L119.733 339.945L119.733 339.945L120.253 334.469ZM117.806 334.234L118.34 328.76L118.073 328.734H117.806V334.234ZM100.582 334.234L99.0583 339.518L99.8051 339.734H100.582V334.234ZM89.2682 330.971L90.7922 325.686L90.4021 325.574L89.9997 325.52L89.2682 330.971ZM75.582 328.953L74.6982 334.381L74.6982 334.381L75.582 328.953ZM45.6657 321.722L47.8669 316.682L47.8669 316.682L45.6657 321.722ZM34.7642 315.253L38.1647 310.93L37.3204 310.266L36.2882 309.968L34.7642 315.253ZM33.6962 314.945L28.4923 316.725L29.4195 319.436L32.1723 320.23L33.6962 314.945ZM33.4282 314.161L38.6322 312.381L38.1418 310.948L36.9864 309.967L33.4282 314.161ZM11.6112 265.273L6.19844 266.249L6.19844 266.249L11.6112 265.273ZM5.90147 178.594L11.4015 178.597L5.90147 178.594ZM17.0269 88.1038L22.4043 89.2588L17.0269 88.1038ZM44.5261 32.6613L41.0189 28.4247L41.0189 28.4247L44.5261 32.6613ZM67.245 22.5846L68.7544 27.8735L68.7544 27.8735L67.245 22.5846ZM97.1472 16.0641L96.2193 10.6429L96.2193 10.6429L97.1472 16.0641ZM123.604 12.2271L124.267 17.6869L124.267 17.6869L123.604 12.2271ZM131.946 11.2749L132.526 16.7442L132.526 16.7442L131.946 11.2749ZM134.259 11.0365L134.804 16.5094L134.804 16.5094L134.259 11.0365ZM134.871 10.9763L134.345 5.50152L134.342 5.50185L134.871 10.9763ZM135.031 10.961L134.511 5.4856L134.506 5.48615L135.031 10.961ZM135.073 10.957L134.557 5.48129L134.554 5.48159L135.073 10.957ZM135.085 10.9559L134.571 5.47994L134.568 5.4802L135.085 10.9559ZM135.088 10.9556L135.602 16.4315L135.605 16.4313L135.088 10.9556ZM135.26 12.7541L129.784 13.2722L130.256 18.2541H135.26V12.7541ZM135.26 12.7541V18.2541H141.304L140.736 12.2368L135.26 12.7541ZM135.09 10.9554L134.576 5.47948L129.097 5.99392L129.614 11.4726L135.09 10.9554ZM135.13 10.9516L134.697 5.46871L134.657 5.47191L134.616 5.47569L135.13 10.9516ZM135.171 10.9484L140.653 10.5115L140.217 5.03239L134.737 5.46552L135.171 10.9484ZM135.315 12.7541L129.832 13.191L140.797 12.3179L135.315 12.7541ZM135.172 10.9483L134.74 5.46529L134.738 5.46544L135.172 10.9483ZM135.174 10.9482L135.605 16.4312L135.607 16.4311L135.174 10.9482ZM135.183 10.9475L134.751 5.46447L134.75 5.46455L135.183 10.9475ZM135.217 10.9448L134.786 5.46167L134.785 5.46178L135.217 10.9448ZM135.351 10.9343L134.923 5.45094L134.92 5.45116L135.351 10.9343ZM135.872 10.8936L135.446 5.4101L135.445 5.41023L135.872 10.8936ZM137.875 10.7395L138.294 16.2236L138.294 16.2236L137.875 10.7395ZM145.254 10.1902L145.653 15.6756L145.653 15.6756L145.254 10.1902ZM169.787 8.52233L170.133 14.0115L170.133 14.0115L169.787 8.52233ZM228.371 6.07485L228.367 0.574851L228.371 6.07485ZM258.494 6.03415L258.485 0.534159L258.494 6.03415ZM313.925 6.01435L313.915 11.5143L313.925 6.01435ZM371.219 12.261L372.356 6.87981L372.356 6.87981L371.219 12.261ZM421.983 32.3463L418.543 36.6375L418.543 36.6375L421.983 32.3463ZM447.008 61.0492L451.868 58.4742L451.868 58.4742L447.008 61.0492ZM456.951 98.6352L451.471 99.1022L451.471 99.1022L456.951 98.6352ZM456.951 177.218L451.471 176.744L451.471 176.744L456.951 177.218ZM455.457 195.708L460.941 196.132L460.941 196.132L455.457 195.708ZM448.82 259.696L443.364 259.003L443.363 259.005L448.82 259.696ZM448.81 259.774L443.353 259.083L443.351 259.099L443.349 259.115L448.81 259.774ZM448.809 259.78L454.265 260.474L454.267 260.456L454.269 260.439L448.809 259.78ZM445.009 287.457L450.435 288.355L450.435 288.355L445.009 287.457ZM440.636 305.286L445.748 307.315L445.748 307.315L440.636 305.286ZM432.402 316.61L435.666 321.037L435.666 321.037L432.402 316.61ZM419.529 321.798L420.682 327.176L420.682 327.176L419.529 321.798ZM408.485 323.375L407.976 317.899L407.305 317.961L406.668 318.184L408.485 323.375ZM377.45 334.234V339.734H378.384L379.266 339.425L377.45 334.234ZM376.156 334.234V328.734H372.992L371.401 331.469L376.156 334.234ZM375.421 335.622L373.032 340.576L377.988 342.966L380.376 338.009L375.421 335.622ZM372.544 328.734H333.239V339.734H372.544V328.734ZM329.677 330.043L326.636 332.627L333.76 341.009L336.801 338.425L329.677 330.043ZM334.389 333.256C332.829 331.42 330.36 330.03 327.15 329.006L323.806 339.486C324.869 339.825 325.512 340.134 325.861 340.337C326.223 340.548 326.193 340.598 326.007 340.38L334.389 333.256ZM327.152 329.007C327.137 329.002 327.119 328.996 327.099 328.99L323.782 339.478C323.787 339.479 323.794 339.482 323.804 339.485L327.152 329.007ZM325.441 328.734H267.832V339.734H325.441V328.734ZM267.332 328.757C263.039 329.148 258.68 329.565 254.326 329.982L255.375 340.932C259.733 340.515 264.067 340.1 268.331 339.711L267.332 328.757ZM254.394 329.976L254.392 329.977L255.305 340.939L255.307 340.938L254.394 329.976ZM254.324 329.983C238.025 331.543 221.901 333.084 208.789 333.346L209.009 344.344C222.624 344.072 239.204 342.481 255.373 340.932L254.324 329.983ZM208.789 333.346C187.539 333.771 152.897 332.046 120.774 328.994L119.733 339.945C152.079 343.018 187.178 344.78 209.009 344.344L208.789 333.346ZM120.774 328.994C119.961 328.917 119.149 328.839 118.34 328.76L117.272 339.708C118.091 339.788 118.911 339.867 119.733 339.945L120.774 328.994ZM117.806 328.734H100.582V339.734H117.806V328.734ZM102.106 328.949L90.7922 325.686L87.7442 336.256L99.0583 339.518L102.106 328.949ZM89.9997 325.52C85.2445 324.882 80.7094 324.215 76.4659 323.524L74.6982 334.381C79.0587 335.091 83.6966 335.773 88.5366 336.422L89.9997 325.52ZM76.4659 323.524C63.6543 321.438 53.4569 319.123 47.8669 316.682L43.4644 326.763C50.4754 329.824 61.9476 332.305 74.6982 334.381L76.4659 323.524ZM47.8669 316.682C44.1345 315.052 40.933 313.108 38.1647 310.93L31.3638 319.576C34.8832 322.344 38.8936 324.766 43.4644 326.763L47.8669 316.682ZM36.2882 309.968L35.2202 309.66L32.1723 320.23L33.2403 320.538L36.2882 309.968ZM38.9002 313.165L38.6322 312.381L28.2242 315.942L28.4923 316.725L38.9002 313.165ZM36.9864 309.967C23.7533 298.74 20.0765 281.229 17.0239 264.297L6.19844 266.249C9.14951 282.618 13.1972 304.21 29.87 318.355L36.9864 309.967ZM17.0239 264.297C13.2639 243.44 11.3857 204.898 11.4015 178.597L0.401467 178.591C0.385648 205.06 2.25921 244.398 6.19844 266.249L17.0239 264.297ZM11.4015 178.597C11.4172 152.297 18.6052 106.946 22.4043 89.2588L11.6495 86.9488C7.78666 104.933 0.417863 151.156 0.401467 178.591L11.4015 178.597ZM22.4043 89.2588C26.2022 71.5765 31.3473 50.7111 48.0334 36.898L41.0189 28.4247C21.0492 44.9561 15.3874 69.5462 11.6495 86.9488L22.4043 89.2588ZM48.0334 36.898C52.2057 33.4441 59.7671 30.4384 68.7544 27.8735L65.7356 17.2958C56.6972 19.8753 47.1241 23.3706 41.0189 28.4247L48.0334 36.898ZM68.7544 27.8735C77.7464 25.3072 88.1715 23.1804 98.0751 21.4853L96.2193 10.6429C86.1291 12.37 75.2687 14.5751 65.7356 17.2958L68.7544 27.8735ZM98.0751 21.4853C107.979 19.7901 117.361 18.5266 124.267 17.6869L122.94 6.76735C115.918 7.62104 106.35 8.90887 96.2193 10.6429L98.0751 21.4853ZM124.267 17.6869C127.721 17.2671 130.555 16.9532 132.526 16.7442L131.366 5.80554C129.347 6.01962 126.456 6.33984 122.94 6.76735L124.267 17.6869ZM132.526 16.7442C133.511 16.6398 134.281 16.5615 134.804 16.5094L133.714 5.56357C133.169 5.61785 132.376 5.69846 131.366 5.80554L132.526 16.7442ZM134.804 16.5094C135.066 16.4834 135.266 16.4638 135.4 16.4508L134.342 5.50185C134.197 5.51586 133.986 5.53643 133.714 5.56357L134.804 16.5094ZM135.397 16.4512L135.557 16.4358L134.506 5.48615L134.345 5.50152L135.397 16.4512ZM135.551 16.4363L135.593 16.4323L134.554 5.48159L134.511 5.4856L135.551 16.4363ZM135.59 16.4326L135.602 16.4315L134.568 5.4802L134.557 5.48129L135.59 16.4326ZM135.599 16.4318L135.602 16.4315L134.574 5.47963L134.571 5.47994L135.599 16.4318ZM135.605 16.4313C135.605 16.4313 135.577 16.4338 135.55 16.4362C135.522 16.4384 135.44 16.4443 135.385 16.4475C135.243 16.4552 135.014 16.4623 134.731 16.4439C134.119 16.4041 133.353 16.2503 132.561 15.8403C131.042 15.0546 130.376 13.8296 130.167 13.4118C129.926 12.9293 129.814 12.5214 129.778 12.3872C129.73 12.2073 129.701 12.0628 129.687 11.9912C129.659 11.8471 129.644 11.7336 129.64 11.703C129.633 11.6567 129.629 11.6204 129.627 11.6034C129.621 11.5508 129.617 11.51 129.619 11.5308C129.62 11.5452 129.625 11.5898 129.635 11.7039C129.657 11.9255 129.699 12.3724 129.784 13.2722L140.735 12.236C140.65 11.3371 140.607 10.8847 140.586 10.6567C140.575 10.546 140.568 10.4782 140.564 10.4364C140.563 10.4291 140.558 10.3743 140.551 10.3147C140.549 10.2959 140.544 10.2583 140.538 10.211C140.534 10.1795 140.518 10.0653 140.49 9.92075C140.476 9.84896 140.447 9.70426 140.399 9.5243C140.363 9.38999 140.25 8.982 140.01 8.49941C139.801 8.08158 139.135 6.85657 137.616 6.07078C136.824 5.66083 136.058 5.50702 135.446 5.46717C135.163 5.44878 134.933 5.45591 134.792 5.46357C134.737 5.46681 134.654 5.4727 134.627 5.47494C134.6 5.47732 134.572 5.47983 134.572 5.47983L135.605 16.4313ZM135.26 18.2541H135.26V7.25407H135.26V18.2541ZM129.614 11.4726L129.784 13.2713L140.736 12.2368L140.566 10.4382L129.614 11.4726ZM134.616 5.47569L134.576 5.47948L135.604 16.4313L135.645 16.4275L134.616 5.47569ZM134.737 5.46552L134.697 5.46871L135.564 16.4345L135.604 16.4313L134.737 5.46552ZM140.797 12.3172L140.653 10.5115L129.688 11.3853L129.832 13.191L140.797 12.3172ZM140.797 12.3179C140.725 11.4148 140.69 10.9648 140.672 10.7408C140.663 10.6269 140.659 10.5769 140.658 10.5563C140.656 10.5382 140.658 10.5582 140.66 10.5865C140.66 10.5957 140.662 10.6162 140.663 10.6425C140.664 10.6596 140.668 10.7249 140.67 10.8089C140.671 10.8503 140.673 10.9357 140.671 11.0439C140.669 11.1185 140.665 11.3766 140.62 11.7035C140.596 11.8708 140.546 12.1792 140.432 12.5532C140.325 12.9043 140.086 13.5703 139.554 14.2713C138.938 15.0843 138.084 15.7388 137.064 16.1127C136.616 16.2766 136.233 16.3508 135.985 16.3879C135.89 16.4012 135.748 16.4181 135.7 16.4229C135.653 16.4273 135.605 16.4313 135.605 16.4313L134.738 5.46544C134.738 5.46544 134.691 5.46942 134.643 5.47381C134.595 5.47861 134.453 5.49549 134.358 5.50879C134.11 5.54586 133.727 5.62011 133.28 5.78398C132.259 6.15787 131.405 6.81241 130.789 7.62538C129.858 8.85277 129.733 10.1239 129.724 10.1933C129.678 10.5203 129.674 10.7785 129.672 10.8532C129.671 10.9615 129.672 11.0471 129.673 11.0887C129.676 11.1731 129.679 11.2391 129.68 11.2572C129.682 11.2845 129.683 11.3063 129.684 11.3173C129.686 11.3527 129.689 11.3868 129.69 11.3969C129.692 11.4327 129.697 11.4956 129.706 11.6074C129.724 11.8348 129.76 12.2877 129.832 13.1902L140.797 12.3179ZM135.603 16.4314L135.605 16.4312L134.743 5.4651L134.74 5.46529L135.603 16.4314ZM135.607 16.4311L135.616 16.4304L134.75 5.46455L134.741 5.46524L135.607 16.4311ZM135.615 16.4305L135.649 16.4278L134.785 5.46178L134.751 5.46447L135.615 16.4305ZM135.648 16.4279L135.781 16.4174L134.92 5.45116L134.786 5.46167L135.648 16.4279ZM135.779 16.4176L136.3 16.3769L135.445 5.41023L134.923 5.45094L135.779 16.4176ZM136.299 16.377C136.754 16.3416 137.427 16.2897 138.294 16.2236L137.457 5.2554C136.585 5.32194 135.907 5.37429 135.446 5.4101L136.299 16.377ZM138.294 16.2236C140.027 16.0913 142.54 15.9024 145.653 15.6756L144.854 4.7047C141.727 4.93247 139.202 5.12233 137.457 5.2554L138.294 16.2236ZM145.653 15.6756C151.88 15.2221 160.512 14.6171 170.133 14.0115L169.441 3.0332C159.777 3.64167 151.107 4.24925 144.854 4.7047L145.653 15.6756ZM170.133 14.0115C189.373 12.8001 212.566 11.586 228.375 11.5748L228.367 0.574851C212.179 0.586289 188.679 1.82205 169.441 3.0332L170.133 14.0115ZM228.375 11.5748C239.278 11.5671 249.062 11.5503 258.504 11.5341L258.485 0.534159C249.043 0.550367 239.264 0.567152 228.367 0.574851L228.375 11.5748ZM258.504 11.5341C276.431 11.5034 293.123 11.4747 313.915 11.5143L313.936 0.514364C293.121 0.474701 276.411 0.503388 258.485 0.534159L258.504 11.5341ZM313.915 11.5143C329.791 11.5446 350.579 13.5211 370.082 17.6422L372.356 6.87981C352.11 2.60179 330.567 0.546055 313.936 0.514364L313.915 11.5143ZM370.082 17.6422C389.584 21.7629 407.805 28.0283 418.543 36.6375L425.424 28.0551C412.562 17.7433 392.172 11.0667 372.356 6.87981L370.082 17.6422ZM418.543 36.6375C429.281 45.2459 436.905 53.7273 442.148 63.6242L451.868 58.4742C445.722 46.8742 436.945 37.2919 425.424 28.0551L418.543 36.6375ZM442.148 63.6242C447.392 73.5209 450.255 84.8328 451.471 99.1022L462.431 98.1681C461.132 82.9278 458.007 70.0613 451.868 58.4742L442.148 63.6242ZM451.471 99.1022C453.903 127.641 453.903 148.625 451.471 176.744L462.43 177.692C464.917 148.938 464.916 127.324 462.431 98.1681L451.471 99.1022ZM451.471 176.744C450.856 183.852 450.402 189.739 449.974 195.285L460.941 196.132C461.369 190.585 461.82 184.744 462.43 177.692L451.471 176.744ZM449.974 195.285C448.714 211.603 447.671 225.123 443.364 259.003L454.276 260.39C458.612 226.29 459.671 212.584 460.941 196.132L449.974 195.285ZM443.363 259.005L443.353 259.083L454.266 260.466L454.276 260.388L443.363 259.005ZM443.349 259.115L443.349 259.121L454.269 260.439L454.27 260.433L443.349 259.115ZM443.353 259.086C441.916 270.384 440.773 279.372 439.583 286.559L450.435 288.355C451.666 280.918 452.838 271.695 454.265 260.474L443.353 259.086ZM439.583 286.559C438.39 293.762 437.151 299.157 435.524 303.257L445.748 307.315C447.826 302.08 449.214 295.731 450.435 288.355L439.583 286.559ZM435.524 303.257C433.897 307.358 431.882 310.161 429.139 312.182L435.666 321.037C440.473 317.493 443.573 312.796 445.748 307.315L435.524 303.257ZM429.139 312.182C426.395 314.205 422.92 315.446 418.377 316.42L420.682 327.176C425.832 326.072 431.081 324.416 435.666 321.037L429.139 312.182ZM418.377 316.42C415.003 317.143 411.496 317.572 407.976 317.899L408.994 328.852C412.689 328.509 416.689 328.032 420.682 327.176L418.377 316.42ZM406.668 318.184L375.634 329.042L379.266 339.425L410.301 328.567L406.668 318.184ZM377.45 328.734H376.156V339.734H377.45V328.734ZM371.401 331.469C371.07 332.039 370.759 332.628 370.466 333.234L380.376 338.009C380.55 337.648 380.728 337.312 380.911 336.998L371.401 331.469ZM377.81 330.668L374.933 329.28L370.154 339.188L373.032 340.576L377.81 330.668Z" fill="black"/>
</svg>
