<svg preserveAspectRatio="none" width="557" height="396" viewBox="0 0 557 396" fill="none" xmlns="http://www.w3.org/2000/svg">
<path d="M448.585 389.438C459.099 368.361 485.252 374.051 507.677 369.409C530.101 364.766 531.387 355.028 538.5 301C545.613 246.972 545.5 236.5 548.5 203C551.5 169.5 551.5 144.5 548.5 110.5C545.5 76.5 534.375 56.5953 507.887 36.0846C481.4 15.5738 418 6.2267 378.836 6.15461C339.672 6.08253 312.327 6.20008 273.328 6.2267C234.329 6.25331 158.901 12.0125 158.901 12.0125C158.901 12.0125 71.466 19.9407 50.8852 36.3969C30.3043 52.853 23.9573 77.708 19.2714 98.7803C14.5854 119.853 5.71944 173.882 5.70005 205.215C5.68066 236.549 7.99733 282.467 12.635 307.315C17.2727 332.162 23.1014 358.09 50.675 369.721C78.2486 381.353 196.74 390.586 249.162 389.574C301.585 388.562 388.674 371.956 404.085 389.468" stroke="black" stroke-width="11"/>
</svg>
