<svg width="16" height="16" viewBox="0 0 16 16" fill="none" xmlns="http://www.w3.org/2000/svg">
<path d="M5.2597 1.66675C4.75402 1.79221 4.27867 1.95859 3.83366 2.16589C3.68091 2.26408 3.57727 2.36739 3.52272 2.47583C3.46817 2.58426 3.44089 2.69042 3.44089 2.79431C3.44089 2.90923 3.45998 3.0116 3.49817 3.10144C3.53636 3.19126 3.60454 3.28854 3.70273 3.39328L6.59645 6.3947L10.0495 2.31977C9.47126 1.98155 9.16214 1.88768 8.55984 1.72403C7.95756 1.56037 7.36457 1.47855 6.78088 1.47855C6.27244 1.47855 5.76538 1.54128 5.2597 1.66675Z" fill="#1D1D1D"/>
<path d="M10.4736 15.0397C10.6597 15.2288 10.8837 15.3234 11.1455 15.3234C11.4028 15.3234 11.6278 15.2304 11.8203 15.0443C12.0129 14.8582 12.1092 14.6342 12.1092 14.3724C12.1092 14.1151 12.0147 13.8901 11.8258 13.6976C11.6368 13.505 11.415 13.4087 11.1603 13.4087C10.8947 13.4087 10.6674 13.5032 10.4782 13.6921C10.2891 13.8811 10.1945 14.1029 10.1945 14.3576C10.1945 14.6232 10.2875 14.8506 10.4736 15.0397Z" fill="#1D1D1D"/>
<path d="M3.44089 15.0397C3.61892 15.2288 3.84417 15.3234 4.11664 15.3234C4.38392 15.3234 4.61272 15.2304 4.80305 15.0443C4.99339 14.8582 5.08856 14.6315 5.08856 14.3642C5.08856 14.1124 4.99681 13.8901 4.81331 13.6976C4.62981 13.505 4.40183 13.4087 4.12938 13.4087C3.85692 13.4087 3.62954 13.5032 3.44726 13.6921C3.26497 13.8811 3.17383 14.1029 3.17383 14.3576C3.17383 14.6232 3.26285 14.8506 3.44089 15.0397Z" fill="#1D1D1D"/>
<path d="M3.66478 11.9194C3.82844 12.2686 4.10119 12.4431 4.48304 12.4431H10.1454C10.5402 12.4431 10.8899 12.2952 11.1943 11.9994C11.4988 11.7036 11.651 11.3551 11.651 10.9539V10.5427H4.14444L3.79571 10.9539C3.54477 11.2485 3.50113 11.5703 3.66478 11.9194Z" fill="#1D1D1D"/>
<path d="M4.70983 9.87603L11.0961 2.34584C11.2938 2.11046 11.555 1.90704 11.8795 1.7356C12.204 1.56417 12.5376 1.47845 12.8801 1.47845C13.5608 1.47845 14.1398 1.72068 14.6171 2.20512C15.0945 2.68956 15.3332 3.27105 15.3332 3.9496C15.3332 4.15007 15.2587 4.32293 15.1098 4.46818C14.9608 4.61341 14.7807 4.68603 14.5693 4.68603C14.3626 4.68603 14.1873 4.61341 14.0434 4.46818C13.8995 4.32293 13.8276 4.15007 13.8276 3.9496C13.8276 3.67462 13.736 3.44495 13.5529 3.26059C13.3698 3.07623 13.158 2.98405 12.9177 2.98405C12.7559 2.98405 12.6121 3.02087 12.4862 3.09452C12.3604 3.16816 12.2456 3.27863 12.142 3.42591L11.651 3.99869V9.87603H4.70983Z" fill="#1D1D1D"/>
</svg>
