<svg width="20" height="22" viewBox="0 0 20 22" fill="none" xmlns="http://www.w3.org/2000/svg">
<g clip-path="url(#clip0_1421_136186)">
<rect opacity="0.01" width="1" height="4" fill="white"/>
</g>
<path d="M18.0248 5.0245H19.0248C19.0248 4.47221 18.5771 4.0245 18.0248 4.0245V5.0245ZM18.0248 8.00894V9.00894C18.5771 9.00894 19.0248 8.56122 19.0248 8.00894H18.0248ZM14.89 14.7482L14.9103 15.748L14.89 14.7482ZM2.00195 5.0245V4.0245C1.44967 4.0245 1.00195 4.47221 1.00195 5.0245H2.00195ZM2.00195 8.00894H1.00195C1.00195 8.56122 1.44967 9.00894 2.00195 9.00894V8.00894ZM5.13676 14.7482L5.11652 15.748H5.11652L5.13676 14.7482ZM17.0248 5.0245V8.00894H19.0248V5.0245H17.0248ZM18.0248 7.00894H15.6642V9.00894H18.0248V7.00894ZM13.9178 12.5948C13.9177 12.5951 13.9194 12.5828 13.9265 12.56C13.9333 12.5379 13.944 12.5099 13.9596 12.4785C13.9908 12.4154 14.0381 12.3459 14.1059 12.2816C14.2245 12.1689 14.47 12.0103 14.9826 12.0103V10.0103C14.0004 10.0103 13.249 10.3372 12.7286 10.8314C12.2328 11.3022 11.9933 11.8815 11.9343 12.3385L13.9178 12.5948ZM10.0134 6.0245H18.0248V4.0245H10.0134V6.0245ZM15.6642 7.00894H10.0134V9.00894H15.6642V7.00894ZM12.926 11.4666H11.568V13.4666H12.926V11.4666ZM11.568 11.4666H10.0134V13.4666H11.568V11.4666ZM12.568 19.028V12.4666H10.568V19.028H12.568ZM15.3823 19.028V14.7584H13.3823V19.028H15.3823ZM19.0248 11.0121C19.0248 9.12505 17.734 7.48289 15.9003 7.03722L15.428 8.98065C16.3651 9.20841 17.0248 10.0477 17.0248 11.0121H19.0248ZM17.0248 11.0121V11.5493H19.0248V11.0121H17.0248ZM14.8698 13.7484L14.3621 13.7587L14.4025 15.7582L14.9103 15.748L14.8698 13.7484ZM14.9826 12.0103H15.3575V10.0103H14.9826V12.0103ZM13.926 12.8668V12.4666H11.926V12.8668H13.926ZM14.638 13.7917C14.2183 13.6807 13.926 13.301 13.926 12.8668H11.926C11.926 14.2086 12.8295 15.3821 14.1266 15.7252L14.638 13.7917ZM17.0248 11.5493C17.0248 12.7467 16.067 13.7241 14.8698 13.7484L14.9103 15.748C17.196 15.7017 19.0248 13.8355 19.0248 11.5493H17.0248ZM1.00195 5.0245V8.00894H3.00195V5.0245H1.00195ZM2.00195 9.00894H4.36262V7.00894H2.00195V9.00894ZM8.09252 12.3385C8.03349 11.8815 7.79394 11.3022 7.29815 10.8314C6.77783 10.3372 6.02638 10.0103 5.04423 10.0103V12.0103C5.55681 12.0103 5.80228 12.1689 5.92086 12.2816C5.98866 12.3459 6.03596 12.4154 6.06722 12.4785C6.08281 12.5099 6.09345 12.5379 6.1003 12.56C6.10735 12.5828 6.10905 12.5951 6.109 12.5948L8.09252 12.3385ZM10.0134 4.0245H2.00195V6.0245H10.0134V4.0245ZM4.36262 9.00894H10.0134V7.00894H4.36262V9.00894ZM7.10076 13.4666H8.45883V11.4666H7.10076V13.4666ZM8.45883 13.4666H10.0134V11.4666H8.45883V13.4666ZM9.45883 19.028V12.4666H7.45883V19.028H9.45883ZM6.64447 19.028V14.7584H4.64447V19.028H6.64447ZM3.00195 11.0121C3.00195 10.0477 3.66167 9.20841 4.59879 8.98065L4.12644 7.03722C2.29279 7.48289 1.00195 9.12505 1.00195 11.0121H3.00195ZM1.00195 11.0121V11.5493H3.00195V11.0121H1.00195ZM5.11652 15.748L5.62423 15.7582L5.6647 13.7587L5.157 13.7484L5.11652 15.748ZM5.04423 10.0103H4.66932V12.0103H5.04423V10.0103ZM8.10076 12.8668V12.4666H6.10076V12.8668H8.10076ZM5.9002 15.7252C7.19731 15.3821 8.10076 14.2086 8.10076 12.8668H6.10076C6.10076 13.301 5.80843 13.6807 5.38873 13.7917L5.9002 15.7252ZM1.00195 11.5493C1.00195 13.8355 2.83076 15.7017 5.11652 15.748L5.157 13.7484C3.95981 13.7241 3.00195 12.7467 3.00195 11.5493H1.00195Z" fill="black"/>
<defs>
<clipPath id="clip0_1421_136186">
<rect width="20" height="2" fill="white"/>
</clipPath>
</defs>
</svg>
