<svg width="16" height="16" viewBox="0 0 16 16" fill="none" xmlns="http://www.w3.org/2000/svg">
<path d="M4.03516 5.94481V1.15629H4.91458V4.72227L5.5432 4.72221V1.15622H6.37351V4.72221L7.03689 4.72227V1.15629H7.84164V5.94481C7.84164 6.44321 6.70479 7.02747 6.70479 7.02747C6.70479 10.5163 6.92211 12.121 6.92211 13.1178C6.92211 13.6162 6.55719 14.3413 6.28335 14.613C6.00951 14.8847 5.9876 14.8779 5.72067 14.613C5.21838 14.1146 4.98631 13.6162 4.98631 13.1178C4.98631 12.121 5.29022 10.5163 5.29022 7.02747C5.29022 7.02747 4.03516 6.44321 4.03516 5.94481Z" fill="#1D1D1D"/>
<path d="M9.27282 1.65468C9.27282 1.65468 9.27282 1.15629 9.77512 1.15629C10.4721 1.85404 11.4212 4.17512 11.4212 6.09251C11.4212 7.28244 10.8763 8.51 10.4902 9.44761C10.6409 11.2543 10.7664 12.4294 10.7664 13.1178C10.7664 13.6162 10.7664 14.1146 10.2641 14.613C9.96675 14.9081 9.98138 14.9329 9.65897 14.613C9.15668 14.1146 9.15668 13.6162 9.15668 13.1178C9.15668 12.5197 9.12842 11.5541 9.27282 10.1274V1.65468Z" fill="#1D1D1D"/>
</svg>
