<svg width="20" height="22" viewBox="0 0 20 22" fill="none" xmlns="http://www.w3.org/2000/svg">
<g clip-path="url(#clip0_1421_136196)">
<rect opacity="0.01" width="1" height="4" fill="white"/>
</g>
<path d="M9.33891 11.3727C8.63236 10.6245 9.91489 7.91653 9.26552 7.26718L5.76687 3.76855M9.33891 11.3727C8.80226 10.9069 5.88264 11.9488 5.23336 11.2995L1.73438 7.80043M9.33891 11.3727C11.5057 13.4557 15.8575 18.4018 16.3758 18.92C16.8941 19.4383 17.5228 18.8704 16.9518 18.344L9.33891 11.3727ZM3.7508 5.7846L8.30596 10.3397M12.5819 11.0979C13.158 10.5218 12.2939 9.08174 12.2831 8.24812C12.3223 6.96645 16.5182 4.85337 17.6672 5.90936C18.8162 6.96534 16.9189 11.3424 15.485 11.45C14.5981 11.3859 12.87 10.8098 12.5819 11.0979ZM12.5819 11.0979L12.2502 11.4295M4.62793 19.6625C3.97987 20.3106 3.50741 19.6921 4.05189 19.0865C4.55693 18.5248 7.32271 16.4935 9.50163 14.3145C8.13574 15.7206 5.1124 19.1781 4.62793 19.6625Z" stroke="#1D1D1D" stroke-width="2"/>
<defs>
<clipPath id="clip0_1421_136196">
<rect width="20" height="2" fill="white"/>
</clipPath>
</defs>
</svg>
