<svg width="24" height="24" viewBox="0 0 24 24" fill="none" xmlns="http://www.w3.org/2000/svg">
<path d="M11.9934 5.37853L11.2311 6.02579L11.9934 6.9235L12.7556 6.02579L11.9934 5.37853ZM3.53207 12.6284L4.32385 12.0176L3.53207 12.6284ZM20.4546 12.6284L19.6629 12.0176L20.4546 12.6284ZM12.0222 20.7004L11.3565 21.4466C11.7358 21.785 12.3086 21.785 12.6879 21.4466L12.0222 20.7004ZM12.7556 4.73127C10.5242 2.10328 6.66479 1.29935 3.74292 3.81424L5.04761 5.33008C6.98221 3.66495 9.58648 4.08895 11.2311 6.02579L12.7556 4.73127ZM3.74292 3.81424C0.915264 6.24803 0.506033 10.343 2.7403 13.2392L4.32385 12.0176C2.7443 9.97008 3.01879 7.0763 5.04761 5.33008L3.74292 3.81424ZM21.2464 13.2392C23.4719 10.3544 23.1264 6.22763 20.2334 3.80542L18.9495 5.33889C20.9964 7.05273 21.2512 9.95875 19.6629 12.0176L21.2464 13.2392ZM20.2334 3.80542C17.2801 1.33268 13.4701 2.09436 11.2311 4.73127L12.7556 6.02579C14.3927 4.09787 16.9629 3.67559 18.9495 5.33889L20.2334 3.80542ZM2.7403 13.2392C3.59517 14.3474 5.3925 16.0733 7.10579 17.6458C8.84006 19.2375 10.5827 20.7564 11.3565 21.4466L12.6879 19.9542C11.8891 19.2416 10.1794 17.7521 8.45815 16.1723C6.71588 14.5732 5.05444 12.9646 4.32385 12.0176L2.7403 13.2392ZM12.6879 21.4466C13.4672 20.7514 15.1906 19.2369 16.9128 17.6429C18.6128 16.0696 20.3932 14.3452 21.2464 13.2392L19.6629 12.0176C18.9306 12.9668 17.2811 14.5769 15.5543 16.1751C13.8499 17.7526 12.1498 19.2465 11.3565 19.9542L12.6879 21.4466Z" fill="#1D1D1D"/>
</svg>
