<svg width="16" height="16" viewBox="0 0 16 16" fill="none" xmlns="http://www.w3.org/2000/svg">
<path d="M12.8863 11.2981L13.1933 11.9166C13.2781 12.0874 13.1872 12.1346 13.0164 12.2193L11.8152 12.929C11.4689 13.1009 11.0479 12.9547 10.8832 12.6041L9.54974 9.88108H6.53567C6.19203 9.88108 5.9007 9.6284 5.85208 9.28821C5.12082 4.1694 5.16284 4.48739 5.15464 4.35697C5.15464 3.57241 5.80886 2.94066 6.60153 2.97747C7.31947 3.01081 7.89728 3.6012 7.9162 4.31968C7.93493 5.03033 7.35889 5.60496 6.52642 5.72313L6.62719 6.42853H9.43157C9.62226 6.42853 9.77683 6.5831 9.77683 6.77379V7.13761C9.77683 7.3283 9.62226 7.48287 9.43157 7.48287H6.82449L6.92314 8.64362H9.77683C9.90793 8.64362 10.0363 8.68094 10.147 8.75122C10.2577 8.8215 10.346 8.92184 10.4018 9.04049L11.6429 11.6941L12.4235 11.2981C12.5943 11.2133 12.8015 11.1273 12.8863 11.2981ZM9.11124 10.5716H8.58244C8.41439 11.7412 7.4058 12.6431 6.19041 12.6431C4.85778 12.6431 3.77361 11.559 3.77361 10.2263C3.77361 9.33072 4.34755 8.54733 5.07324 8.12985C4.99314 7.56956 4.8914 7.10141 4.83434 6.70279C3.43432 7.26281 2.39258 8.62873 2.39258 10.2263C2.39258 12.3205 4.09627 14.0242 6.19041 14.0242C7.74126 14.0242 9.07775 13.0896 9.66694 11.7543L9.11124 10.5716Z" fill="#1D1D1D"/>
</svg>
