<svg width="16" height="16" viewBox="0 0 16 16" fill="none" xmlns="http://www.w3.org/2000/svg">
<path d="M6.03879 13.5413C6.08894 13.5957 6.11561 13.6676 6.113 13.7416C6.11039 13.8155 6.07871 13.8854 6.02484 13.9361L5.41925 14.5024C5.36517 14.5526 5.29337 14.5793 5.2196 14.5767C5.14584 14.574 5.07615 14.5422 5.02584 14.4881L1.49906 10.6873C1.44894 10.6329 1.42232 10.5609 1.42499 10.487C1.42765 10.413 1.45938 10.3432 1.51328 10.2925L2.11971 9.72704C2.14647 9.70213 2.17788 9.68274 2.21213 9.66997C2.24639 9.6572 2.28283 9.65131 2.31937 9.65263C2.3559 9.65395 2.39182 9.66246 2.42506 9.67767C2.45831 9.69287 2.48823 9.71449 2.51313 9.74126L6.03879 13.5413ZM10.5389 6.38959C10.589 6.444 10.6157 6.51599 10.613 6.58991C10.6103 6.66384 10.5786 6.73373 10.5247 6.78439L6.71325 10.3449C6.65917 10.3951 6.58736 10.4219 6.5136 10.4192C6.43983 10.4165 6.37014 10.3847 6.31983 10.3307L5.41005 9.34897C5.35993 9.29456 5.33331 9.22256 5.33597 9.14864C5.33864 9.07471 5.37037 9.00482 5.42427 8.95416L9.23488 5.39365C9.26162 5.36874 9.293 5.34936 9.32724 5.33659C9.36147 5.32383 9.39788 5.31794 9.4344 5.31926C9.47091 5.32058 9.5068 5.32908 9.54003 5.34429C9.57325 5.35949 9.60315 5.3811 9.62802 5.40787L10.5389 6.38959ZM7.33557 12.3293C7.43985 12.4416 7.43344 12.6192 7.32135 12.7241L6.71492 13.2901C6.68816 13.315 6.65676 13.3344 6.6225 13.3471C6.58824 13.3599 6.5518 13.3658 6.51527 13.3645C6.47873 13.3632 6.44281 13.3547 6.40957 13.3394C6.37632 13.3242 6.3464 13.3026 6.32151 13.2758L2.79668 9.47499C2.74653 9.42062 2.71986 9.34865 2.72247 9.27472C2.72508 9.2008 2.75676 9.13089 2.81062 9.08018L3.41594 8.51446C3.47002 8.46422 3.54182 8.4375 3.61559 8.44016C3.68935 8.44283 3.75904 8.47467 3.80935 8.52868L7.33557 12.3293ZM13.2083 6.52593C13.2584 6.58037 13.285 6.65239 13.2823 6.72631C13.2795 6.80024 13.2478 6.87011 13.1938 6.92073L12.5877 7.48674C12.5336 7.53703 12.4618 7.56381 12.3879 7.56119C12.3141 7.55858 12.2444 7.52679 12.194 7.4728L8.6686 3.67278C8.61838 3.61844 8.59167 3.54645 8.59428 3.4725C8.59689 3.39856 8.62861 3.32863 8.68254 3.27797L9.29037 2.71057C9.3171 2.68567 9.34849 2.66628 9.38272 2.65352C9.41695 2.64076 9.45337 2.63487 9.48988 2.63619C9.5264 2.63751 9.56229 2.64601 9.59551 2.66122C9.62874 2.67642 9.65864 2.69803 9.6835 2.72479L13.2083 6.52593ZM14.5032 5.31586C14.5532 5.37035 14.5798 5.44237 14.5771 5.51632C14.5745 5.59027 14.5428 5.66019 14.4889 5.71094L13.8839 6.27666C13.8572 6.30158 13.8258 6.32099 13.7916 6.33378C13.7574 6.34657 13.721 6.35248 13.6844 6.35119C13.6479 6.34989 13.612 6.34141 13.5788 6.32623C13.5456 6.31105 13.5157 6.28947 13.4908 6.26272L9.96595 2.46103C9.91584 2.40658 9.88921 2.33458 9.89182 2.26063C9.89443 2.18668 9.92607 2.11673 9.97989 2.06595L10.5855 1.49911C10.6122 1.47416 10.6435 1.45473 10.6777 1.44193C10.7119 1.42912 10.7483 1.4232 10.7848 1.42449C10.8213 1.42579 10.8572 1.43428 10.8904 1.44947C10.9236 1.46467 10.9535 1.48628 10.9783 1.51305L14.5032 5.31586Z" fill="#1D1D1D"/>
</svg>
