<svg width="16" height="16" viewBox="0 0 16 16" fill="none" xmlns="http://www.w3.org/2000/svg">
<path d="M1.88965 6.35871L3.00042 7.46948C5.76068 4.70922 10.2371 4.70922 12.9973 7.46948L14.1081 6.35871C10.7369 2.98753 5.26639 2.98753 1.88965 6.35871ZM6.33273 10.8018L7.99888 12.4679L9.66503 10.8018C9.44644 10.5826 9.18675 10.4087 8.90084 10.2901C8.61494 10.1714 8.30843 10.1103 7.99888 10.1103C7.68933 10.1103 7.38282 10.1714 7.09691 10.2901C6.81101 10.4087 6.55132 10.5826 6.33273 10.8018ZM4.11119 8.58025L5.22196 9.69102C5.95865 8.95493 6.95746 8.54145 7.99888 8.54145C9.0403 8.54145 10.0391 8.95493 10.7758 9.69102L11.8866 8.58025C9.74279 6.43646 6.26053 6.43646 4.11119 8.58025Z" fill="#1D1D1D"/>
</svg>
